<svg width="20" height="20" viewBox="0 0 20 20" fill="none" xmlns="http://www.w3.org/2000/svg">
<path d="M9.79199 10.625C10.1372 10.625 10.417 10.3452 10.417 10C10.417 9.65482 10.1372 9.375 9.79199 9.375C9.44681 9.375 9.16699 9.65482 9.16699 10C9.16699 10.3452 9.44681 10.625 9.79199 10.625Z" stroke="#5D5D5D" stroke-width="1.5" stroke-linecap="round" stroke-linejoin="round"/>
<path d="M9.79199 6.25C10.1372 6.25 10.417 5.97018 10.417 5.625C10.417 5.27982 10.1372 5 9.79199 5C9.44681 5 9.16699 5.27982 9.16699 5.625C9.16699 5.97018 9.44681 6.25 9.79199 6.25Z" stroke="#5D5D5D" stroke-width="1.5" stroke-linecap="round" stroke-linejoin="round"/>
<path d="M9.79199 15C10.1372 15 10.417 14.7202 10.417 14.375C10.417 14.0298 10.1372 13.75 9.79199 13.75C9.44681 13.75 9.16699 14.0298 9.16699 14.375C9.16699 14.7202 9.44681 15 9.79199 15Z" stroke="#5D5D5D" stroke-width="1.5" stroke-linecap="round" stroke-linejoin="round"/>
</svg>
