<svg width="20" height="20" viewBox="0 0 20 20" fill="none" xmlns="http://www.w3.org/2000/svg">
<path d="M6.66667 14.1664H13.3333M9.18141 2.30313L3.52949 6.69907C3.15168 6.99292 2.96278 7.13984 2.82669 7.32384C2.70614 7.48683 2.61633 7.67045 2.56169 7.86567C2.5 8.08606 2.5 8.32537 2.5 8.804V14.8331C2.5 15.7665 2.5 16.2332 2.68166 16.5898C2.84144 16.9034 3.09641 17.1583 3.41002 17.3181C3.76654 17.4998 4.23325 17.4998 5.16667 17.4998H14.8333C15.7668 17.4998 16.2335 17.4998 16.59 17.3181C16.9036 17.1583 17.1586 16.9034 17.3183 16.5898C17.5 16.2332 17.5 15.7665 17.5 14.8331V8.804C17.5 8.32537 17.5 8.08606 17.4383 7.86567C17.3837 7.67045 17.2939 7.48683 17.1733 7.32384C17.0372 7.13984 16.8483 6.99292 16.4705 6.69907L10.8186 2.30313C10.5258 2.07542 10.3794 1.96156 10.2178 1.91779C10.0752 1.87918 9.92484 1.87918 9.78221 1.91779C9.62057 1.96156 9.47418 2.07542 9.18141 2.30313Z" stroke="#2E2E2E" stroke-width="1.5" stroke-linecap="round" stroke-linejoin="round"/>
</svg>
