<svg width="18" height="20" viewBox="0 0 18 20" fill="none" xmlns="http://www.w3.org/2000/svg">
<path d="M6.82936 16.1426L7.3164 17.238C7.46118 17.564 7.69747 17.8411 7.99659 18.0355C8.29571 18.2299 8.64483 18.3334 9.00159 18.3333C9.35835 18.3334 9.70746 18.2299 10.0066 18.0355C10.3057 17.8411 10.542 17.564 10.6868 17.238L11.1738 16.1426C11.3472 15.7539 11.6388 15.4299 12.0071 15.2167C12.3778 15.0029 12.8066 14.9118 13.2321 14.9565L14.4238 15.0833C14.7785 15.1209 15.1365 15.0547 15.4544 14.8928C15.7722 14.7309 16.0363 14.4803 16.2145 14.1713C16.393 13.8625 16.4781 13.5086 16.4593 13.1524C16.4406 12.7962 16.3189 12.4532 16.109 12.1648L15.4034 11.1954C15.1522 10.8476 15.018 10.429 15.0201 10C15.02 9.57216 15.1555 9.1553 15.4071 8.80926L16.1127 7.83982C16.3226 7.55147 16.4443 7.2084 16.463 6.85223C16.4818 6.49607 16.3967 6.14212 16.2183 5.83334C16.04 5.52437 15.7759 5.27375 15.4581 5.11186C15.1402 4.94998 14.7822 4.88378 14.4275 4.9213L13.2358 5.04815C12.8103 5.09285 12.3815 5.00177 12.0108 4.78797C11.6418 4.57355 11.3501 4.2478 11.1775 3.85741L10.6868 2.76204C10.542 2.43598 10.3057 2.15893 10.0066 1.9645C9.70746 1.77007 9.35835 1.66661 9.00159 1.66667C8.64483 1.66661 8.29571 1.77007 7.99659 1.9645C7.69747 2.15893 7.46118 2.43598 7.3164 2.76204L6.82936 3.85741C6.6568 4.2478 6.36509 4.57355 5.99603 4.78797C5.62538 5.00177 5.19659 5.09285 4.77103 5.04815L3.57566 4.9213C3.22094 4.88378 2.86294 4.94998 2.54509 5.11186C2.22724 5.27375 1.96317 5.52437 1.78492 5.83334C1.60644 6.14212 1.52141 6.49607 1.54014 6.85223C1.55888 7.2084 1.68058 7.55147 1.89048 7.83982L2.59603 8.80926C2.84765 9.1553 2.98315 9.57216 2.98307 10C2.98315 10.4278 2.84765 10.8447 2.59603 11.1907L1.89048 12.1602C1.68058 12.4485 1.55888 12.7916 1.54014 13.1478C1.52141 13.5039 1.60644 13.8579 1.78492 14.1667C1.96335 14.4755 2.22744 14.726 2.54525 14.8878C2.86306 15.0497 3.22096 15.116 3.57566 15.0787L4.76733 14.9519C5.19289 14.9072 5.62167 14.9982 5.99233 15.212C6.36277 15.4259 6.65583 15.7517 6.82936 16.1426Z" stroke="#2E2E2E" stroke-width="1.5" stroke-linecap="round" stroke-linejoin="round"/>
<path d="M9.0001 12.5C10.3808 12.5 11.5001 11.3807 11.5001 10C11.5001 8.61929 10.3808 7.5 9.0001 7.5C7.61939 7.5 6.5001 8.61929 6.5001 10C6.5001 11.3807 7.61939 12.5 9.0001 12.5Z" stroke="#2E2E2E" stroke-width="1.5" stroke-linecap="round" stroke-linejoin="round"/>
</svg>
